<svg xmlns="http://www.w3.org/2000/svg" viewBox="0 0 204.21 84.38"><defs><style>.a{fill:#002d62;}.b{fill:#b4975a;}</style></defs><title>cuvee-catherine-logo</title><path class="a" d="M56.49,8l.28,1.37c.23,1.17.29,1.19.57,1.14l.4-.08.06.29-2.28.46-.06-.29.39-.08c.12,0,.13-.08.11-.17L55.22,7c-.23-1.16-.29-1.19-.58-1.13l-.39.08-.06-.29,2.28-.46.06.29-.4.08c-.11,0-.12.08-.1.17l.39,1.95,2.49-.49-.18-.9c-.23-1.17-.29-1.19-.58-1.14l-.39.08L57.7,4.9,60,4.44l.06.3-.4.07c-.11,0-.12.08-.1.17l.74,3.68c.23,1.16.29,1.19.57,1.13l.4-.08.06.29L59,10.46,59,10.17l.39-.08c.12,0,.13-.08.11-.17L59,7.49Z"/><path class="a" d="M63.36,9.35l.4-.06c.12,0,.12-.08.11-.17l-.6-3.7c-.2-1.17-.25-1.2-.54-1.15l-.4.06,0-.29,4.35-.71c0,.86.05.92,0,.94s-.15,0-.18-.18-.54-.28-1.55-.12l-.64.11c-.09,0-.11,0-.09.13l.31,2L65.27,6c.94-.15,1-.26.92-.52l0-.31.26-.05.26,1.57-.27,0,0-.32c0-.15-.08-.24-1-.09l-.82.14.1.65C64.91,9,65,9,65.25,9l.31-.05c.48-.08,1.69-.28,1.89-.81,0-.07,0-.12.11-.14a.1.1,0,0,1,.12.09,5.82,5.82,0,0,1-.1.88l-4.17.69Z"/><path class="a" d="M74.7,6.36l-.24-1.89a13.71,13.71,0,0,0-.26-1.56c-.08-.27-.15-.28-.39-.25l-.36,0,0-.3,1.67-.21,0,.3-.25,0c-.23,0-.27,0-.26.15l.66,5.24c0,.06,0,.11-.07.12s-.13-.06-.3-.2l-4.51-4,.31,2.47A13.52,13.52,0,0,0,71,7.88c.08.27.15.29.39.25l.35,0,0,.29-1.67.22,0-.3.25,0c.23,0,.27,0,.26-.15L70,4.06c-.06-.5-.31-.88-.65-.84l-.26,0,0-.3,1.54-.19Z"/><path class="a" d="M78.13,7.62l0-.29.4,0c.12,0,.13-.06.12-.15L78.29,3.4c-.11-1.18-.17-1.21-.46-1.19l-.4,0,0-.29L80,1.71a1.68,1.68,0,0,1,2,1.37,1.38,1.38,0,0,1-1.15,1.5,20.23,20.23,0,0,0,1.68,2c.27.24.34.31.69.27l0,.3-1,.09c-.2,0-.36,0-.45,0A12,12,0,0,1,80,4.84l-.56,0L79.57,6c.11,1.18.17,1.21.45,1.18l.41,0,0,.29Zm1.31-3,.33,0c.71-.07,1.33-.44,1.26-1.25a1.29,1.29,0,0,0-1.3-1.23l-.39,0c-.09,0-.12,0-.11.13Z"/><path class="a" d="M87.41,5.35c.07,1.18.13,1.22.42,1.2l.4,0,0,.3L85.92,7l0-.3.41,0c.11,0,.13-.06.12-.15l-.13-2L85,2.43c-.51-.8-.59-.8-.74-.79l-.32,0,0-.29,2.3-.15,0,.29-.48,0s-.06,0-.06.05.09.15.1.18L87.17,4a11.43,11.43,0,0,0,1-2.47c0-.11-.08-.12-.21-.11l-.46,0,0-.29L89.16,1l0,.29-.23,0c-.19,0-.22,0-.33.28L87.34,4.38Z"/><path class="a" d="M94.28,5.32A2.62,2.62,0,0,1,96.6,2.47,1.26,1.26,0,0,1,98,3.84a2.61,2.61,0,0,1-2.33,2.84,1.25,1.25,0,0,1-1.38-1.36m2.77-1.2c0-.45-.09-1.36-.72-1.34-.91,0-1.13,1.57-1.11,2.25,0,.45.09,1.36.72,1.34.91,0,1.13-1.57,1.11-2.25"/><path class="a" d="M100.09,2.87l0-.27h.56a4.34,4.34,0,0,1,.47-1.71A1.78,1.78,0,0,1,102.62,0c.23,0,.68.08.69.39s-.16.25-.32.26-.4-.18-.55-.37c-.71.14-.8,1.65-.85,2.3h.7l0,.27h-.69l-.3,3.22c-.25,2.52-2,2.61-2.11,2.61s-.64-.09-.64-.4A.29.29,0,0,1,98.83,8a.74.74,0,0,1,.56.35c.07,0,.71,0,.91-1.75,0-.36.26-2.51.37-3.75Z"/><path class="a" d="M108.91,5c0,1.19,0,1.23.3,1.24h.41v.29l-2.33-.06v-.3h.4c.12,0,.14,0,.14-.14l.11-3.75c0-1.19,0-1.23-.31-1.24h-.4V.75l2.59.07c1.63.05,2,1,1.94,1.61a1.81,1.81,0,0,1-2,1.52,2.74,2.74,0,0,1-.79-.14Zm0-1.48a1.49,1.49,0,0,0,.55.11,1.1,1.1,0,0,0,1.22-1.1,1.3,1.3,0,0,0-1.34-1.36h-.24c-.09,0-.12,0-.13.11Z"/><path class="a" d="M113.73,6.39l.4,0c.12,0,.14,0,.14-.14l.22-3.75c.07-1.18,0-1.22-.27-1.24l-.41,0,0-.3,4.41.25c-.15.85-.17.92-.26.91s-.13-.08-.13-.21-.46-.39-1.49-.45l-.64,0c-.09,0-.12,0-.13.11l-.11,2,.84.05c1,0,1-.05,1-.31V2.93l.27,0-.09,1.58-.27,0,0-.32c0-.15,0-.25-1-.31l-.84,0,0,.66c-.11,1.91-.07,1.94.23,2l.32,0c.48,0,1.7.1,2-.38,0-.06.06-.12.14-.11a.1.1,0,0,1,.1.11,6.3,6.3,0,0,1-.29.84l-4.22-.24Z"/><path class="a" d="M122.23,5c-.16,1.91-.13,1.94.17,2l.32,0c.48,0,1.7.15,2-.32.05-.06.07-.12.15-.11a.1.1,0,0,1,.09.12,5.48,5.48,0,0,1-.31.83l-4.22-.37,0-.29.4,0c.12,0,.14,0,.15-.13L121.35,3c.11-1.18.06-1.23-.23-1.25l-.4,0,0-.29,2.32.2,0,.3-.4,0c-.12,0-.14,0-.14.13Z"/><path class="a" d="M128.8,5l-.17,1.4c-.14,1.18-.09,1.22.2,1.26l.4,0,0,.3-2.32-.28,0-.29.41,0c.11,0,.14,0,.15-.13l.44-3.73c.14-1.18.1-1.22-.19-1.26l-.4,0,0-.3,2.32.28,0,.29-.4-.05c-.12,0-.14,0-.15.13l-.24,2,2.52.3.11-.91c.14-1.19.09-1.23-.19-1.26l-.4,0,0-.3,2.32.28,0,.3-.4-.05c-.12,0-.14,0-.15.13l-.45,3.72c-.14,1.18-.09,1.23.2,1.26l.4,0,0,.29-2.31-.27,0-.3.41,0c.11,0,.14,0,.15-.13l.29-2.46Z"/><path class="a" d="M136.35,6.83a7.71,7.71,0,0,0-.74,1.47c0,.17.06.22.21.24l.51.08,0,.29-1.81-.28.05-.29.28,0a.22.22,0,0,0,.26-.12c.52-.92,1.78-2.89,3-4.88a6.19,6.19,0,0,1,.73,0c.06,0,.08.07.07.13s-.19.09-.22.27.54,3.08.82,4.5c.15.77.2.89.51.94l.21,0-.05.3-2.24-.35.05-.3.4.07c.17,0,.2,0,.17-.2l-.3-1.62Zm1.41-2.31c-.44.65-.83,1.32-1.22,2l1.61.25Z"/><path class="a" d="M145.81,8.91l2.51-3.67,1.5.29-.06.3-.39-.08c-.12,0-.15,0-.16.11l-.73,3.69c-.23,1.16-.18,1.21.1,1.26l.4.08-.06.29-2.29-.45.06-.29.4.08c.11,0,.14,0,.16-.12l.82-4.18h0l-2.77,4.05s-.08.14-.14.12-.07-.12-.08-.17L144,5.57h0l-.46,2.33a13.82,13.82,0,0,0-.24,1.56c0,.28.05.31.29.36l.35.07-.06.29-1.65-.32.06-.3.24,0c.23.05.28.06.3-.06l.73-3.73c.15-.76.19-1.19-.3-1.29l-.24,0L143,4.2l1.68.33Z"/><path class="b" d="M142.73,26.65a3.52,3.52,0,0,1-1,2.44,11.5,11.5,0,0,1-1.65,1.32.92.92,0,0,1-.36.12c-.18,0-.25-.14-.2-.44a5.37,5.37,0,0,0,.34-.86,3,3,0,0,0,.1-.86,3.8,3.8,0,0,0-.28-1.4,3.22,3.22,0,0,0-1.56-1.8,5.27,5.27,0,0,0-2.52-.6,6.38,6.38,0,0,0-4.52,1.84,5.87,5.87,0,0,0-2,4.42,6.32,6.32,0,0,0,1.12,3.53,3.89,3.89,0,0,0,1,1c.18.13.69.44,1.52.92.24.13.36.27.36.4s-.1.21-.28.32l-2.49,1.45c-.69.42-1.09.68-1.2.76L128,40a.27.27,0,0,1-.28.08c-.24,0-.33-.18-.28-.48s.13-.59.22-1a5.54,5.54,0,0,0,.14-1.2,6.23,6.23,0,0,0-.28-1.76,8.56,8.56,0,0,0-4.1-5.15,14.5,14.5,0,0,0-7.67-2q-8.08,0-13,7.28a27.38,27.38,0,0,0-4.57,15.85,34.32,34.32,0,0,0,5.73,19.68q6.36,9.43,16.53,9.44a17.17,17.17,0,0,0,10.37-3.16q4.37-3.17,4.37-7.17a3.48,3.48,0,0,0-.52-1.86,1.6,1.6,0,0,0-1.4-.86,2.44,2.44,0,0,0-1.36.36,2.6,2.6,0,0,0-.64.6c-.06.21-.16.32-.33.32s-.24-.19-.24-.56a4.15,4.15,0,0,1,.81-2.32A3,3,0,0,1,134,64.53a3.42,3.42,0,0,1,3,1.6,5.87,5.87,0,0,1,1,3.4,4,4,0,0,1,0,.68q-.55,5.88-6.16,10a21.66,21.66,0,0,1-13.22,4.14q-11.49,0-19-9.48a33.55,33.55,0,0,1-7.16-21.51A29.38,29.38,0,0,1,98.92,34.3q6.89-8.46,17.14-8.45a15.91,15.91,0,0,1,11,3.92,11.46,11.46,0,0,1,2.64-5.68A8.29,8.29,0,0,1,136.16,21a7.11,7.11,0,0,1,4.74,1.54,5.07,5.07,0,0,1,1.83,4.07"/><path class="b" d="M63.25,22.58A7.16,7.16,0,0,1,68,21a8.26,8.26,0,0,1,6.48,3.05,11.39,11.39,0,0,1,2.65,5.68,15.89,15.89,0,0,1,11-3.92q10.25,0,17.13,8.45a29.34,29.34,0,0,1,6.57,19.09,33.5,33.5,0,0,1-7.17,21.51q-7.53,9.48-19,9.48A21.63,21.63,0,0,1,72.4,80.24q-5.61-4.14-6.17-10a5.5,5.5,0,0,1,0-.68,5.87,5.87,0,0,1,1-3.4,3.42,3.42,0,0,1,3-1.6,3,3,0,0,1,2.56,1.52,4.14,4.14,0,0,1,.8,2.32c0,.37-.08.56-.24.56s-.26-.11-.32-.32a2.79,2.79,0,0,0-.64-.6A2.46,2.46,0,0,0,71,67.65a1.58,1.58,0,0,0-1.4.86A3.48,3.48,0,0,0,69,70.37q0,4,4.36,7.17A17.19,17.19,0,0,0,83.77,80.7q10.17,0,16.54-9.44A34.31,34.31,0,0,0,106,51.58a27.45,27.45,0,0,0-4.56-15.85q-5-7.27-13-7.28a14.5,14.5,0,0,0-7.67,2,8.52,8.52,0,0,0-4.1,5.15,5.37,5.37,0,0,0-.15,3c.1.45.17.8.23,1s0,.46-.29.48a.27.27,0,0,1-.28-.08L75,39.22c-.1-.08-.5-.34-1.2-.76L71.36,37c-.19-.11-.28-.21-.28-.32s.12-.27.36-.4c.83-.48,1.33-.79,1.52-.92a3.7,3.7,0,0,0,1-1A6.25,6.25,0,0,0,75,30.83a5.86,5.86,0,0,0-2-4.42,6.39,6.39,0,0,0-4.52-1.84,5.28,5.28,0,0,0-2.53.6A3.29,3.29,0,0,0,64.47,27a4,4,0,0,0-.28,1.4,3.38,3.38,0,0,0,.1.86,6.52,6.52,0,0,0,.34.86c.06.3,0,.44-.2.44a.92.92,0,0,1-.36-.12,11.27,11.27,0,0,1-1.64-1.32,3.48,3.48,0,0,1-1-2.44,5.09,5.09,0,0,1,1.82-4.07"/><path class="a" d="M13.68,48.68a10.12,10.12,0,0,0-5.28-1.6A5.85,5.85,0,0,0,2.27,53c0,3.44,2.52,5.83,6.22,5.83a10,10,0,0,0,5.35-1.74v2.41a11.23,11.23,0,0,1-5.56,1.35A7.84,7.84,0,0,1,0,53.16c0-4.68,3.53-8.1,8.42-8.1a13.29,13.29,0,0,1,5.26,1.26Z"/><path class="a" d="M30.11,54.58c0,3.76-2.25,6.23-6.82,6.23-3.24,0-6.39-1.82-6.39-6V45.26h2.2v9.07c0,1.73.23,2.45.93,3.15a4.45,4.45,0,0,0,3.3,1.31,5,5,0,0,0,3.61-1.24,4.51,4.51,0,0,0,1-3.36V45.26h2.21Z"/><polygon class="a" points="39.22 60.74 38.77 60.74 32.13 45.26 34.34 45.26 38.95 56.04 43.54 45.26 45.72 45.26 39.22 60.74"/><path class="a" d="M56.79,47.24h-6.5v4.64h6.28v2H50.29v4.77H57v2H48.08V45.26h8.71Zm-2.25-6.3L52,44.25H50.78l1.51-3.31Z"/><polygon class="a" points="68.72 47.24 62.21 47.24 62.21 51.88 68.49 51.88 68.49 53.86 62.21 53.86 62.21 58.63 68.92 58.63 68.92 60.61 60.01 60.61 60.01 45.26 68.72 45.26 68.72 47.24"/><path class="a" d="M91.94,48.68a10.13,10.13,0,0,0-5.29-1.6A5.84,5.84,0,0,0,80.53,53c0,3.44,2.52,5.83,6.21,5.83a10.06,10.06,0,0,0,5.36-1.74v2.41a11.26,11.26,0,0,1-5.56,1.35,7.84,7.84,0,0,1-8.29-7.65c0-4.68,3.54-8.1,8.42-8.1a13.33,13.33,0,0,1,5.27,1.26Z"/><path class="a" d="M109.35,60.61H107.1l-2-4.52H98.53l-1.94,4.52H94.34l6.59-15.44h1.56Zm-10-6.5h4.77l-2.47-5.56Z"/><polygon class="a" points="120.99 47.24 115.67 47.24 115.67 60.61 113.47 60.61 113.47 47.24 108.16 47.24 108.16 45.26 120.99 45.26 120.99 47.24"/><polygon class="a" points="136.74 60.61 134.53 60.61 134.53 53.92 125.93 53.92 125.93 60.61 123.73 60.61 123.73 45.26 125.93 45.26 125.93 51.95 134.53 51.95 134.53 45.26 136.74 45.26 136.74 60.61"/><path class="a" d="M154.13,60.61h-2.25l-2-4.52H143.3l-1.93,4.52h-2.25l6.59-15.44h1.55Zm-10-6.5h4.77l-2.48-5.56Z"/><path class="a" d="M160.4,45.26c3.11,0,5,1.64,5,4.3a3.84,3.84,0,0,1-2.56,3.76c1.39.92,2.25,2.34,3.42,4.25.65,1.06,1,1.58,2.09,3h-2.63l-2-3.15c-2-3.15-2.94-3.51-4.07-3.51h-.92v6.66h-2.21V45.26ZM158.74,52h1.42c2.36,0,3-1.22,3-2.5,0-1.44-.88-2.32-3-2.32h-1.42Z"/><rect class="a" x="170.78" y="45.26" width="2.2" height="15.35"/><polygon class="a" points="191.25 60.61 189.36 60.61 179.1 48.79 179.1 60.61 177.03 60.61 177.03 45.26 178.78 45.26 189.18 57.14 189.18 45.26 191.25 45.26 191.25 60.61"/><polygon class="a" points="204.01 47.24 197.5 47.24 197.5 51.88 203.78 51.88 203.78 53.86 197.5 53.86 197.5 58.63 204.21 58.63 204.21 60.61 195.3 60.61 195.3 45.26 204.01 45.26 204.01 47.24"/></svg>