<svg xmlns="http://www.w3.org/2000/svg" viewBox="0 0 92.4 92.36"><defs><style>.a{fill:#b4975a;}</style></defs><title>cuvee-stamp</title><path class="a" d="M76.82,26.87a2.6,2.6,0,0,1-.76,1.84,8.61,8.61,0,0,1-1.25,1,.69.69,0,0,1-.27.09q-.21,0-.15-.33a5.11,5.11,0,0,0,.26-.65,2.32,2.32,0,0,0,.08-.64,2.88,2.88,0,0,0-.2-1.06,2.49,2.49,0,0,0-1.16-1.37,3.91,3.91,0,0,0-1.9-.47,4.81,4.81,0,0,0-3.42,1.36,4.38,4.38,0,0,0-1.51,3.31,4.73,4.73,0,0,0,.82,2.68,3.22,3.22,0,0,0,.71.76c.14.1.53.33,1.15.7.17.1.26.21.26.31s-.07.16-.21.24l-1.88,1.07c-.53.32-.83.51-.91.57-.55.35-.83.55-.85.56a.19.19,0,0,1-.21.06c-.19,0-.25-.14-.21-.36s.09-.44.17-.78a4.14,4.14,0,0,0,.12-.91,5.18,5.18,0,0,0-.2-1.33,6.47,6.47,0,0,0-3.06-3.91A11,11,0,0,0,56.47,28c-4.07,0-7.36,1.77-9.89,5.4A20.62,20.62,0,0,0,43,45.36a26,26,0,0,0,4.18,14.88Q52,67.41,59.62,67.48a13,13,0,0,0,7.84-2.32c2.2-1.57,3.32-3.36,3.33-5.37a2.54,2.54,0,0,0-.37-1.4,1.21,1.21,0,0,0-1.06-.67,2,2,0,0,0-1,.26,2,2,0,0,0-.48.45c0,.16-.12.25-.24.24s-.18-.14-.18-.42a3.19,3.19,0,0,1,.62-1.75A2.23,2.23,0,0,1,70,55.38a2.53,2.53,0,0,1,2.25,1.23,4.28,4.28,0,0,1,.7,2.56,3.36,3.36,0,0,1,0,.52,10.53,10.53,0,0,1-4.71,7.52,16.32,16.32,0,0,1-10,3A17.56,17.56,0,0,1,43.93,63a25.23,25.23,0,0,1-5.26-16.26,22.14,22.14,0,0,1,5.08-14.36,16,16,0,0,1,13-6.25,12,12,0,0,1,8.24,3,8.63,8.63,0,0,1,2-4.27,6.23,6.23,0,0,1,4.9-2.25,5.36,5.36,0,0,1,3.57,1.2A3.82,3.82,0,0,1,76.82,26.87Z"/><path class="a" d="M16.93,23.25a5.4,5.4,0,0,1,3.59-1.13,6.26,6.26,0,0,1,4.87,2.34,8.67,8.67,0,0,1,1.95,4.31,12,12,0,0,1,8.3-2.88A16,16,0,0,1,48.5,32.38a22.16,22.16,0,0,1,4.83,14.44A25.24,25.24,0,0,1,47.78,63a17.56,17.56,0,0,1-14.4,7,16.33,16.33,0,0,1-9.94-3.22,10.51,10.51,0,0,1-4.58-7.61,3.3,3.3,0,0,1,0-.51,4.55,4.55,0,0,1,.75-2.56,2.58,2.58,0,0,1,2.28-1.18,2.22,2.22,0,0,1,1.92,1.16,3.21,3.21,0,0,1,.59,1.76c0,.28-.07.42-.19.42s-.2-.09-.24-.24a1.9,1.9,0,0,0-.48-.46,1.77,1.77,0,0,0-1-.28,1.17,1.17,0,0,0-1.06.64,2.57,2.57,0,0,0-.41,1.4c0,2,1.06,3.82,3.24,5.43A13,13,0,0,0,32,67.22q7.68.07,12.53-7A25.89,25.89,0,0,0,49,45.41a20.62,20.62,0,0,0-3.33-12q-3.69-5.53-9.8-5.59a10.93,10.93,0,0,0-5.79,1.44,6.43,6.43,0,0,0-3.13,3.86,4.73,4.73,0,0,0-.22,1.32,4.5,4.5,0,0,0,.09.91c.07.34.13.6.16.78s0,.35-.21.36a.21.21,0,0,1-.21-.06l-.84-.58-.9-.59L23,34.19c-.14-.08-.21-.17-.21-.25s.09-.2.27-.3A12.63,12.63,0,0,0,24.16,33a2.74,2.74,0,0,0,.74-.74,4.67,4.67,0,0,0,.86-2.66,4.4,4.4,0,0,0-1.44-3.34,4.83,4.83,0,0,0-3.4-1.42,4,4,0,0,0-1.91.43,2.47,2.47,0,0,0-1.19,1.35,2.91,2.91,0,0,0-.22,1.05,2.39,2.39,0,0,0,.07.65,4,4,0,0,0,.26.65c0,.22,0,.34-.16.33a.78.78,0,0,1-.28-.09,7.71,7.71,0,0,1-1.22-1,2.63,2.63,0,0,1-.74-1.84A3.84,3.84,0,0,1,16.93,23.25Z"/><path class="a" d="M4.72,63.2a1.41,1.41,0,1,1-.67,1.89A1.42,1.42,0,0,1,4.72,63.2Z"/><path class="a" d="M6.73,67.44a1.41,1.41,0,1,1-.48,2A1.42,1.42,0,0,1,6.73,67.44Z"/><path class="a" d="M9.17,71.45a1.41,1.41,0,1,1-.27,2A1.4,1.4,0,0,1,9.17,71.45Z"/><path class="a" d="M12,75.18a1.41,1.41,0,1,1,0,2A1.42,1.42,0,0,1,12,75.18Z"/><path class="a" d="M15.23,78.59a1.42,1.42,0,1,1,.15,2A1.42,1.42,0,0,1,15.23,78.59Z"/><path class="a" d="M18.79,81.65a1.42,1.42,0,1,1,.36,2A1.42,1.42,0,0,1,18.79,81.65Z"/><path class="a" d="M22.64,84.32a1.42,1.42,0,1,1,.57,1.93A1.43,1.43,0,0,1,22.64,84.32Z"/><path class="a" d="M26.76,86.57a1.42,1.42,0,1,1,.77,1.86A1.42,1.42,0,0,1,26.76,86.57Z"/><path class="a" d="M31.09,88.39a1.42,1.42,0,1,1,1,1.76A1.43,1.43,0,0,1,31.09,88.39Z"/><path class="a" d="M35.58,89.73a1.42,1.42,0,0,1,2.8.51,1.42,1.42,0,0,1-2.8-.51Z"/><path class="a" d="M40.2,90.6a1.42,1.42,0,1,1,1.3,1.53A1.43,1.43,0,0,1,40.2,90.6Z"/><path class="a" d="M44.88,91a1.42,1.42,0,1,1,1.45,1.37A1.41,1.41,0,0,1,44.88,91Z"/><path class="a" d="M49.57,90.88a1.42,1.42,0,1,1,1.59,1.22A1.43,1.43,0,0,1,49.57,90.88Z"/><path class="a" d="M54.23,90.28a1.4,1.4,0,0,1,1-1.71,1.42,1.42,0,1,1-1,1.71Z"/><path class="a" d="M58.79,89.21a1.42,1.42,0,1,1,1.81.86A1.43,1.43,0,0,1,58.79,89.21Z"/><path class="a" d="M63.22,87.65a1.42,1.42,0,1,1,1.89.67A1.42,1.42,0,0,1,63.22,87.65Z"/><path class="a" d="M67.47,85.65a1.42,1.42,0,1,1,1.94.46A1.42,1.42,0,0,1,67.47,85.65Z"/><path class="a" d="M71.48,83.21a1.42,1.42,0,1,1,2,.26A1.41,1.41,0,0,1,71.48,83.21Z"/><path class="a" d="M75.21,80.36a1.41,1.41,0,1,1,2,0A1.42,1.42,0,0,1,75.21,80.36Z"/><path class="a" d="M78.62,77.15A1.42,1.42,0,1,1,80.46,75a1.4,1.4,0,0,1,.16,2A1.42,1.42,0,0,1,78.62,77.15Z"/><path class="a" d="M81.68,73.59a1.42,1.42,0,1,1,2-.37A1.44,1.44,0,0,1,81.68,73.59Z"/><path class="a" d="M84.36,69.74a1.43,1.43,0,0,1-.58-1.93,1.42,1.42,0,0,1,2.5,1.35A1.43,1.43,0,0,1,84.36,69.74Z"/><path class="a" d="M86.61,65.62a1.43,1.43,0,0,1-.78-1.85,1.42,1.42,0,1,1,.78,1.85Z"/><path class="a" d="M88.42,61.29a1.42,1.42,0,1,1,1.76-1A1.43,1.43,0,0,1,88.42,61.29Z"/><path class="a" d="M89.76,56.79a1.42,1.42,0,1,1,1.66-1.14A1.43,1.43,0,0,1,89.76,56.79Z"/><path class="a" d="M90.63,52.18a1.42,1.42,0,0,1-1.31-1.52,1.42,1.42,0,1,1,2.84.22A1.42,1.42,0,0,1,90.63,52.18Z"/><path class="a" d="M91,47.51a1.42,1.42,0,1,1,1.38-1.46A1.43,1.43,0,0,1,91,47.51Z"/><path class="a" d="M90.91,42.82A1.42,1.42,0,1,1,90.54,40a1.42,1.42,0,0,1,.37,2.82Z"/><path class="a" d="M90.31,38.16a1.41,1.41,0,1,1,1-1.71A1.42,1.42,0,0,1,90.31,38.16Z"/><path class="a" d="M89.24,33.6a1.44,1.44,0,0,1-1.82-.86,1.42,1.42,0,1,1,1.82.86Z"/><path class="a" d="M87.68,29.17a1.42,1.42,0,1,1,.67-1.9A1.42,1.42,0,0,1,87.68,29.17Z"/><path class="a" d="M85.68,24.93a1.42,1.42,0,1,1-1.49-2.42,1.42,1.42,0,0,1,1.49,2.42Z"/><path class="a" d="M83.24,20.92a1.42,1.42,0,1,1,.26-2A1.43,1.43,0,0,1,83.24,20.92Z"/><path class="a" d="M80.4,17.19a1.42,1.42,0,1,1,0-2A1.43,1.43,0,0,1,80.4,17.19Z"/><path class="a" d="M77.18,13.77a1.42,1.42,0,1,1-.17-2A1.42,1.42,0,0,1,77.18,13.77Z"/><path class="a" d="M73.62,10.72a1.42,1.42,0,0,1-2.35-1.61,1.42,1.42,0,0,1,2.35,1.61Z"/><path class="a" d="M69.76,8a1.42,1.42,0,1,1-2.5-1.34A1.42,1.42,0,0,1,69.76,8Z"/><path class="a" d="M65.64,5.79A1.42,1.42,0,1,1,63,4.71a1.42,1.42,0,1,1,2.62,1.08Z"/><path class="a" d="M61.31,4a1.42,1.42,0,1,1-1-1.76A1.43,1.43,0,0,1,61.31,4Z"/><path class="a" d="M56.82,2.63A1.42,1.42,0,1,1,54,2.12a1.42,1.42,0,0,1,2.8.51Z"/><path class="a" d="M52.2,1.76A1.42,1.42,0,1,1,50.89.24,1.41,1.41,0,0,1,52.2,1.76Z"/><path class="a" d="M47.52,1.38A1.42,1.42,0,1,1,46.06,0,1.42,1.42,0,0,1,47.52,1.38Z"/><path class="a" d="M42.83,1.49A1.42,1.42,0,1,1,41.24.27,1.42,1.42,0,0,1,42.83,1.49Z"/><path class="a" d="M38.17,2.08a1.42,1.42,0,1,1-2.75.67,1.42,1.42,0,0,1,2.75-.67Z"/><path class="a" d="M33.61,3.16A1.42,1.42,0,1,1,31.8,2.3,1.43,1.43,0,0,1,33.61,3.16Z"/><path class="a" d="M29.18,4.72a1.42,1.42,0,1,1-1.89-.67A1.42,1.42,0,0,1,29.18,4.72Z"/><path class="a" d="M24.93,6.72A1.42,1.42,0,1,1,23,6.26,1.41,1.41,0,0,1,24.93,6.72Z"/><path class="a" d="M20.93,9.16a1.42,1.42,0,1,1-2-.26A1.42,1.42,0,0,1,20.93,9.16Z"/><path class="a" d="M17.19,12a1.42,1.42,0,1,1-2-.05A1.42,1.42,0,0,1,17.19,12Z"/><path class="a" d="M13.78,15.22a1.43,1.43,0,0,1,.16,2,1.42,1.42,0,0,1-2.16-1.84A1.43,1.43,0,0,1,13.78,15.22Z"/><path class="a" d="M10.71,18.78a1.42,1.42,0,1,1-2,.37A1.42,1.42,0,0,1,10.71,18.78Z"/><path class="a" d="M8.05,22.64a1.42,1.42,0,1,1-1.93.57A1.41,1.41,0,0,1,8.05,22.64Z"/><path class="a" d="M5.79,26.75a1.42,1.42,0,1,1-1.08,2.62,1.4,1.4,0,0,1-.77-1.84A1.42,1.42,0,0,1,5.79,26.75Z"/><path class="a" d="M4,31.08a1.42,1.42,0,1,1-.8,2.72A1.42,1.42,0,0,1,4,31.08Z"/><path class="a" d="M2.63,35.57a1.44,1.44,0,0,1,1.15,1.65,1.42,1.42,0,0,1-1.66,1.14A1.41,1.41,0,0,1,1,36.71,1.43,1.43,0,0,1,2.63,35.57Z"/><path class="a" d="M1.76,40.19a1.41,1.41,0,1,1-1.52,1.3A1.42,1.42,0,0,1,1.76,40.19Z"/><path class="a" d="M1.38,44.86A1.42,1.42,0,1,1,0,46.32,1.42,1.42,0,0,1,1.38,44.86Z"/><path class="a" d="M1.48,49.55a1.42,1.42,0,1,1,.38,2.81,1.42,1.42,0,0,1-.38-2.81Z"/><path class="a" d="M2.08,54.21a1.42,1.42,0,1,1-1,1.71A1.41,1.41,0,0,1,2.08,54.21Z"/><path class="a" d="M3.16,58.77A1.44,1.44,0,0,1,5,59.62a1.42,1.42,0,0,1-.87,1.82,1.4,1.4,0,0,1-1.8-.86A1.41,1.41,0,0,1,3.16,58.77Z"/></svg>