<svg xmlns="http://www.w3.org/2000/svg" viewBox="0 0 454.98 305.75"><defs><style>.a{fill:#fff;}</style></defs><title>default-logo-white</title><path class="a" d="M365.84,305.75A89.13,89.13,0,1,0,344,130.21a47.7,47.7,0,0,1-5.83,1.39c-2.42.34-5.38-2.4-5.38-5.37a5.37,5.37,0,0,1,5.38-5.37l5.75.25A60.56,60.56,0,1,0,343.87,0H303.6a37.76,37.76,0,0,0-37.76,37.76V289.83a5.47,5.47,0,0,1-5.47,5.47,4.88,4.88,0,0,1-4.91-3.06L162.57,25.62A37.77,37.77,0,0,0,91.65,24L.51,285.83a15.94,15.94,0,0,0-.51,4c0,8.76,7.52,15.87,16.29,15.87A16,16,0,0,0,31,296.29L76,167.13a5.48,5.48,0,0,1,5-3.34h96.27a5.48,5.48,0,0,0,0-10.95H81a16.41,16.41,0,0,0-15.12,10l-45,129.21a5.48,5.48,0,0,1-10.47-2.25,6,6,0,0,1,0-.75l.37-1.37L101.53,27.24a27.38,27.38,0,0,1,50.71.38l93.12,267.27c2.55,7.08,8.35,10.79,15,10.79a15.86,15.86,0,0,0,15.86-15.85V37.76A27.41,27.41,0,0,1,303.6,10.35l40.27,0a49.91,49.91,0,1,1,0,99.82H338a16.2,16.2,0,0,0-16.21,16.21c0,9,8.1,16.78,16.21,16.2a27.64,27.64,0,0,0,6.92-1.33,94.19,94.19,0,0,1,20.91-2.83,78.17,78.17,0,1,1,0,156.33l-65.59,0a5.47,5.47,0,0,0,0,10.94Z"/></svg>