<?xml version="1.0" standalone="no"?>
<!DOCTYPE svg PUBLIC "-//W3C//DTD SVG 20010904//EN"
 "http://www.w3.org/TR/2001/REC-SVG-20010904/DTD/svg10.dtd">
<svg version="1.0" xmlns="http://www.w3.org/2000/svg"
 width="910.000000pt" height="910.000000pt" viewBox="0 0 910.000000 910.000000"
 preserveAspectRatio="xMidYMid meet">
<metadata>
Created by potrace 1.11, written by Peter Selinger 2001-2013
</metadata>
<g transform="translate(0.000000,910.000000) scale(0.100000,-0.100000)"
fill="#000000" stroke="none">
<path d="M2375 7580 c-115 -29 -189 -63 -271 -123 -148 -111 -234 -234 -293
-421 -11 -33 -45 -133 -76 -221 -31 -88 -78 -224 -105 -302 -27 -79 -51 -147
-55 -153 -3 -5 -8 -18 -10 -27 -2 -10 -22 -70 -45 -133 -54 -153 -157 -450
-181 -525 -11 -33 -24 -69 -29 -80 -5 -11 -25 -67 -45 -125 -20 -58 -54 -157
-75 -220 -78 -227 -97 -280 -103 -287 -4 -3 -7 -15 -7 -25 0 -10 -4 -26 -9
-36 -9 -16 -19 -43 -22 -60 -2 -9 -48 -140 -59 -167 -13 -31 -23 -59 -25 -70
-2 -5 -21 -62 -43 -125 -22 -63 -48 -137 -58 -165 -9 -27 -25 -72 -35 -100
-28 -80 -107 -309 -155 -450 -25 -71 -48 -137 -51 -145 -3 -8 -7 -19 -9 -25
-1 -5 -14 -39 -27 -75 -13 -36 -24 -67 -25 -70 -1 -7 -7 -25 -40 -120 -17 -47
-34 -98 -40 -115 -6 -16 -36 -102 -67 -190 -31 -88 -58 -164 -59 -170 -2 -5
-6 -17 -9 -25 -3 -8 -13 -35 -21 -60 -8 -25 -40 -117 -71 -205 -31 -88 -58
-167 -60 -175 -2 -8 -4 -16 -5 -17 -2 -2 -3 -6 -5 -10 -1 -5 -4 -15 -7 -23
-24 -64 -102 -290 -103 -300 0 -3 -3 -9 -6 -15 -4 -5 -14 -35 -23 -65 -10 -30
-22 -65 -28 -77 -15 -31 -4 -150 18 -198 33 -69 83 -120 157 -161 78 -42 236
-41 288 3 9 7 18 11 21 8 7 -7 97 83 112 114 12 22 143 385 150 416 3 10 7 22
29 80 6 17 12 35 14 40 2 9 91 266 134 385 11 30 21 62 24 70 2 8 31 94 65
190 34 96 79 227 101 290 23 63 49 140 60 170 11 30 21 60 22 65 2 9 7 21 33
90 4 11 8 22 9 25 0 3 16 50 35 105 19 55 35 102 35 105 1 3 7 19 14 35 7 17
14 37 16 45 2 8 20 60 40 115 20 55 38 107 40 115 2 8 22 67 45 130 23 63 42
120 44 125 6 28 30 57 54 67 20 9 300 12 1013 13 910 1 989 3 1013 18 74 49
66 152 -14 191 -19 10 -248 12 -1020 11 -547 -1 -1008 -5 -1024 -9 -37 -9 -82
-32 -124 -64 -67 -51 -84 -89 -209 -452 -8 -25 -19 -54 -23 -65 -14 -34 -23
-60 -25 -71 -2 -5 -19 -55 -38 -110 -20 -54 -56 -160 -82 -234 -25 -74 -50
-144 -55 -155 -11 -25 -44 -128 -43 -135 1 -3 -4 -14 -10 -25 -6 -11 -12 -24
-13 -30 -2 -11 -78 -230 -99 -285 -7 -20 -29 -83 -48 -140 -20 -58 -47 -136
-61 -175 -13 -38 -61 -176 -105 -305 -45 -129 -85 -244 -90 -255 -5 -11 -26
-69 -46 -130 -51 -156 -61 -174 -103 -192 -48 -20 -95 -10 -126 28 -31 37 -33
76 -7 150 76 215 155 441 167 479 8 25 18 52 21 60 3 8 7 22 9 30 2 8 7 23 13
35 5 11 24 63 42 115 17 52 47 138 66 190 19 52 36 102 38 110 2 8 29 87 60
175 31 88 77 219 102 290 117 340 134 391 143 410 5 11 27 74 49 140 22 66 65
192 96 280 31 88 81 232 111 320 30 88 59 169 64 180 4 11 32 90 61 175 29 85
57 161 62 168 5 6 6 12 3 12 -4 0 -2 9 4 21 6 11 13 28 15 37 2 9 27 82 55
162 29 80 53 150 54 155 1 6 7 24 13 40 21 57 26 70 29 80 1 6 14 44 29 85 15
41 60 172 102 290 41 118 92 265 113 325 21 61 93 268 160 460 67 193 134 372
148 400 15 27 57 80 93 116 112 113 258 167 416 156 86 -6 90 -7 148 -27 103
-35 207 -115 272 -210 34 -51 60 -114 131 -320 28 -80 58 -165 67 -190 9 -25
18 -52 20 -60 3 -13 92 -267 108 -310 3 -8 20 -58 37 -110 18 -52 36 -104 40
-115 9 -19 86 -240 117 -335 8 -25 17 -52 20 -60 14 -37 94 -266 97 -275 2 -5
6 -17 9 -25 3 -8 20 -58 37 -110 18 -52 36 -104 40 -115 10 -22 36 -97 115
-325 63 -183 121 -350 205 -590 34 -96 72 -206 85 -245 13 -38 49 -142 80
-230 31 -88 70 -200 87 -250 16 -49 36 -103 43 -120 7 -16 24 -66 38 -110 15
-44 36 -107 48 -140 38 -106 140 -398 159 -455 10 -30 48 -140 85 -245 36
-104 84 -242 106 -305 22 -63 43 -122 46 -130 3 -8 7 -20 8 -26 3 -11 42 -122
88 -248 27 -73 93 -149 161 -183 40 -21 66 -26 121 -27 81 0 125 5 125 16 0 4
7 8 16 8 48 0 147 104 174 184 20 59 20 81 20 2625 0 1411 3 2582 6 2601 26
177 153 342 318 415 105 46 152 50 627 49 244 -1 471 -4 504 -7 76 -8 197 -39
276 -71 232 -93 449 -311 540 -541 7 -16 13 -32 13 -35 1 -3 4 -9 7 -15 4 -5
14 -39 23 -75 50 -203 39 -415 -30 -599 -28 -74 -96 -205 -119 -227 -8 -9 -15
-19 -15 -23 0 -15 -155 -168 -213 -210 -100 -73 -270 -150 -367 -166 -19 -3
-48 -9 -65 -14 -16 -4 -84 -9 -150 -10 -175 -4 -246 -14 -266 -37 -6 -8 -17
-14 -23 -14 -21 0 -96 -80 -121 -130 -27 -53 -47 -161 -33 -182 4 -7 8 -23 8
-36 0 -34 48 -118 91 -161 93 -90 214 -110 374 -61 87 27 302 54 425 54 145
-1 333 -30 466 -72 73 -24 235 -90 250 -103 6 -5 33 -21 60 -35 162 -86 390
-296 503 -462 66 -97 171 -295 171 -322 0 -9 4 -20 8 -25 8 -10 29 -66 37
-102 19 -74 45 -210 53 -267 9 -65 7 -321 -2 -376 -22 -138 -77 -344 -97 -365
-5 -5 -9 -15 -9 -22 0 -15 -40 -105 -51 -113 -3 -3 -9 -15 -13 -27 -9 -30
-118 -194 -169 -258 -58 -71 -192 -201 -257 -249 -74 -55 -148 -106 -154 -106
-3 0 -27 -13 -53 -28 -120 -69 -305 -136 -471 -169 -77 -15 -177 -17 -842 -20
-415 -2 -769 -5 -786 -8 -50 -9 -79 -48 -79 -107 0 -45 4 -53 35 -79 l35 -30
757 1 c417 1 772 5 790 10 18 5 56 11 83 14 56 7 64 8 120 24 22 6 51 13 65
15 14 3 52 15 85 27 33 12 65 23 70 24 51 14 293 134 340 168 5 4 46 34 90 66
118 86 237 198 315 297 17 22 35 42 38 45 4 3 12 12 17 22 6 9 31 47 57 86 91
133 175 313 222 472 59 204 71 293 71 515 -1 155 -4 200 -24 315 -35 208 -133
459 -242 624 -21 32 -39 60 -39 62 0 6 -98 132 -129 168 -124 137 -267 257
-416 347 -73 45 -190 107 -215 114 -3 1 -14 5 -25 10 -54 22 -122 47 -135 50
-8 2 -27 8 -43 14 -15 6 -38 13 -50 15 -12 3 -32 7 -44 10 -63 16 -179 35
-248 41 -57 5 -275 6 -320 1 -16 -2 -57 -6 -90 -10 -33 -4 -119 -21 -191 -38
-116 -28 -136 -30 -163 -18 -17 7 -31 19 -31 26 0 8 -4 14 -10 14 -16 0 -23
68 -10 100 22 52 70 69 170 59 37 -4 238 12 268 20 18 5 35 10 37 10 76 -2
334 109 446 191 108 79 130 99 229 210 106 117 222 347 254 500 3 14 7 34 9
45 49 223 18 498 -82 727 -83 191 -255 397 -426 509 -115 75 -262 144 -349
164 -11 2 -52 12 -91 22 -62 15 -132 17 -615 18 -300 0 -564 -4 -587 -8 -90
-17 -219 -71 -291 -122 -22 -15 -155 -147 -177 -175 -42 -52 -105 -188 -120
-259 -3 -11 -8 -31 -11 -43 -5 -20 -16 -222 -15 -268 1 -8 0 -35 0 -60 0 -25
-1 -49 0 -55 0 -5 0 -48 1 -95 0 -118 0 -120 -1 -170 0 -25 -1 -49 0 -55 0 -5
0 -48 1 -95 0 -118 0 -120 -1 -170 0 -25 -1 -49 0 -55 0 -5 0 -48 1 -95 0
-118 0 -120 -1 -170 0 -25 -1 -49 0 -55 0 -5 0 -48 1 -95 0 -118 0 -120 -1
-170 0 -25 -1 -49 0 -55 0 -5 0 -48 1 -95 0 -118 0 -120 -1 -170 0 -25 -1 -49
0 -55 0 -5 0 -48 1 -95 0 -118 0 -120 -1 -170 0 -25 -1 -49 0 -55 0 -5 0 -48
1 -95 0 -118 0 -120 -1 -170 0 -25 -1 -49 0 -55 0 -5 0 -48 1 -95 0 -118 0
-120 -1 -170 0 -25 -1 -49 0 -55 0 -5 0 -84 0 -175 0 -91 1 -174 1 -185 0 -11
-1 -40 -1 -65 -1 -25 -1 -54 0 -65 6 -92 4 -395 -2 -395 -5 0 -5 -4 -2 -10 3
-5 6 -98 5 -207 0 -109 0 -207 0 -218 0 -11 -1 -40 -1 -65 -1 -25 -1 -54 0
-65 6 -92 4 -395 -2 -395 -5 0 -5 -5 -2 -10 7 -12 8 -374 0 -410 -8 -40 -48
-72 -98 -77 -78 -8 -96 23 -197 327 -10 30 -45 132 -78 225 -33 94 -66 186
-72 205 -7 19 -27 78 -45 130 -19 52 -54 156 -80 230 -26 74 -62 178 -80 230
-42 119 -126 362 -130 375 -1 6 -3 13 -4 17 -1 4 -10 28 -21 53 -11 25 -17 45
-13 45 3 0 1 6 -5 13 -5 6 -14 28 -20 47 -6 19 -42 125 -80 235 -39 110 -102
292 -142 405 -39 113 -87 250 -106 305 -20 55 -44 125 -54 155 -10 30 -46 134
-80 230 -34 96 -66 186 -70 200 -10 29 -150 432 -186 535 -14 39 -26 75 -28
80 -2 6 -6 17 -9 25 -11 28 -79 225 -104 300 -13 41 -28 84 -33 95 -5 11 -16
40 -24 65 -8 25 -77 225 -154 445 -77 220 -143 411 -147 425 -9 30 -61 132
-89 175 -11 17 -57 66 -102 111 -65 63 -102 91 -176 128 -51 26 -106 49 -122
52 -16 3 -33 7 -38 10 -18 11 -58 16 -168 19 -85 2 -133 -2 -185 -15z"/>
</g>
</svg>
